<?xml version="1.0" standalone="no"?>
<!DOCTYPE svg PUBLIC "-//W3C//DTD SVG 20010904//EN"
 "http://www.w3.org/TR/2001/REC-SVG-20010904/DTD/svg10.dtd">
<svg version="1.0" xmlns="http://www.w3.org/2000/svg"
 width="740.000000pt" height="493.000000pt" viewBox="100 100 540 340"
 preserveAspectRatio="xMidYMid meet">

<g transform="translate(0.000000,493.000000) scale(0.100000,-0.100000)"
fill="#A0BBA02D" stroke="none">
<path d="M5816 4854 c-22 -21 -20 -62 4 -101 31 -51 80 -39 80 19 0 36 -24 83
-45 92 -22 8 -21 8 -39 -10z"/>
<path d="M360 4805 c-7 -8 -15 -35 -18 -60 -4 -37 1 -57 26 -108 17 -34 42
-75 56 -92 l24 -30 36 35 c72 69 109 194 73 244 -22 30 -59 17 -81 -29 l-20
-39 -9 29 c-19 59 -60 83 -87 50z"/>
<path d="M5956 4797 c-22 -16 -33 -91 -16 -112 16 -19 44 -19 60 0 21 25 24
89 5 108 -20 20 -26 21 -49 4z"/>
<path d="M7000 4790 c-11 -11 -20 -31 -20 -45 0 -33 -11 -31 -35 8 -40 63
-103 26 -89 -53 3 -19 19 -56 36 -82 29 -46 90 -108 107 -108 25 0 75 97 87
167 8 49 -10 109 -36 123 -25 13 -27 13 -50 -10z"/>
<path d="M5685 4790 c-19 -31 36 -120 75 -120 47 0 49 61 5 106 -25 25 -69 32
-80 14z"/>
<path d="M4622 4728 c-29 -37 -14 -120 24 -135 22 -8 54 30 54 64 0 59 -50
105 -78 71z"/>
<path d="M1549 4701 c-24 -24 -30 -38 -27 -63 2 -28 8 -34 30 -36 41 -5 80 40
76 87 -4 49 -37 54 -79 12z"/>
<path d="M4745 4706 c-10 -15 -15 -40 -13 -68 3 -38 6 -43 30 -46 37 -4 60 33
56 90 -3 38 -6 43 -30 46 -20 2 -31 -3 -43 -22z"/>
<path d="M1416 4698 c-17 -24 -21 -84 -7 -106 16 -26 54 -9 69 30 12 30 12 41
0 64 -17 37 -42 41 -62 12z"/>
<path d="M2455 4711 c-47 -20 -123 -124 -139 -193 -6 -25 -3 -28 31 -35 111
-23 222 3 253 59 13 25 13 29 -3 45 -11 11 -31 17 -58 16 -38 -2 -40 -1 -26
15 8 9 20 27 26 40 25 47 -23 77 -84 53z"/>
<path d="M3496 4694 c-20 -19 -20 -44 -1 -70 22 -29 19 -32 -37 -30 -48 1 -53
-1 -56 -22 -9 -64 77 -114 198 -116 l75 -1 3 29 c7 61 -52 170 -112 207 -38
23 -50 24 -70 3z"/>
<path d="M5837 4655 c-23 -22 -53 -162 -40 -183 19 -31 44 -26 83 17 32 35 44
41 78 41 24 0 49 7 63 19 22 17 22 20 7 43 -10 14 -43 35 -85 51 -79 31 -86
32 -106 12z"/>
<path d="M5656 4645 c-31 -32 20 -87 79 -87 15 0 31 4 37 10 18 18 -8 61 -47
78 -43 18 -50 18 -69 -1z"/>
<path d="M1631 4604 c-43 -36 -41 -78 5 -82 43 -4 96 40 92 77 -4 38 -54 41
-97 5z"/>
<path d="M4517 4623 c-12 -12 -7 -58 9 -81 37 -53 84 -51 84 5 0 52 -65 105
-93 76z"/>
<path d="M4826 4584 c-37 -37 -34 -88 5 -92 19 -2 33 5 53 29 56 66 3 124 -58
63z"/>
<path d="M1380 4543 c-68 -13 -66 -58 5 -93 33 -17 54 -35 63 -55 23 -53 29
-60 50 -63 35 -5 52 33 52 118 0 46 -5 81 -12 88 -12 12 -105 14 -158 5z"/>
<path d="M4627 4492 c-42 -42 -57 -65 -57 -85 0 -37 23 -44 78 -24 43 17 47
16 87 -3 65 -31 95 -24 95 24 0 6 -23 42 -51 79 -35 47 -57 67 -72 67 -14 0
-44 -22 -80 -58z"/>
<path d="M1634 4483 c-34 -6 -60 -41 -48 -61 25 -39 134 -18 134 27 0 16 -40
43 -58 40 -4 -1 -17 -4 -28 -6z"/>
<path d="M5966 3998 c-30 -42 -10 -128 29 -128 36 0 59 86 35 131 -14 26 -45
24 -64 -3z"/>
<path d="M187 3993 c-14 -13 -7 -61 12 -85 l20 -25 -54 5 c-63 5 -76 -8 -55
-58 19 -47 85 -73 186 -74 45 -1 86 3 90 7 12 12 -13 96 -44 147 -15 24 -43
55 -61 67 -33 22 -80 30 -94 16z"/>
<path d="M5828 3975 c-15 -34 0 -83 34 -108 22 -17 30 -18 43 -7 25 20 19 86
-10 115 -31 32 -52 32 -67 0z"/>
<path d="M6991 3986 c-37 -45 -29 -116 13 -116 39 0 68 67 50 114 -8 20 -47
21 -63 2z"/>
<path d="M7121 3963 c-38 -36 -47 -66 -25 -87 21 -22 51 -13 87 25 29 31 34
58 15 77 -19 19 -46 14 -77 -15z"/>
<path d="M6077 3902 c-26 -29 -38 -71 -27 -93 21 -38 66 -16 89 44 21 54 -25
90 -62 49z"/>
<path d="M2713 3895 c-47 -33 -50 -135 -4 -135 45 0 82 105 49 138 -15 15 -19
15 -45 -3z"/>
<path d="M1104 3875 c-12 -50 17 -105 57 -105 37 0 42 75 8 116 -20 24 -58 17
-65 -11z"/>
<path d="M957 3873 c-16 -15 -5 -57 22 -84 31 -31 71 -38 90 -15 16 19 -4 70
-34 90 -25 16 -66 21 -78 9z"/>
<path d="M3965 3855 c-29 -29 -37 -86 -15 -109 16 -16 59 4 75 34 20 38 19 86
-1 94 -26 10 -34 7 -59 -19z"/>
<path d="M7210 3873 c-27 -10 -60 -46 -60 -65 0 -10 12 -24 26 -30 22 -10 32
-9 62 7 46 26 61 49 46 73 -11 18 -48 25 -74 15z"/>
<path d="M5757 3863 c-18 -17 -5 -63 24 -88 42 -35 73 -30 77 11 2 25 -3 37
-28 58 -31 25 -60 33 -73 19z"/>
<path d="M2572 3838 c-19 -19 -15 -92 6 -111 21 -19 48 -22 58 -6 13 21 5 91
-12 110 -20 22 -35 24 -52 7z"/>
<path d="M3842 3841 c-22 -13 -33 -62 -22 -97 13 -39 31 -47 59 -28 46 33 11
155 -37 125z"/>
<path d="M2805 3814 c-34 -37 -32 -97 3 -102 35 -5 84 49 80 90 -4 46 -46 51
-83 12z"/>
<path d="M6893 3829 c-25 -26 -14 -53 32 -81 30 -19 46 -36 51 -55 15 -68 21
-78 47 -81 20 -3 29 3 40 25 20 40 40 139 32 162 -7 24 -19 28 -115 36 -55 5
-78 3 -87 -6z"/>
<path d="M5895 3764 c-44 -68 -56 -99 -49 -118 10 -26 32 -25 81 0 46 25 86
27 136 8 21 -8 46 22 40 46 -3 11 -31 43 -61 70 -77 69 -100 68 -147 -6z"/>
<path d="M4078 3784 c-32 -17 -48 -43 -48 -77 0 -45 56 -42 99 4 25 27 28 74
5 83 -21 8 -25 7 -56 -10z"/>
<path d="M882 3758 c-19 -19 -14 -37 14 -63 31 -29 94 -34 113 -11 36 43 -87
114 -127 74z"/>
<path d="M1135 3731 c-22 -4 -46 -10 -52 -14 -17 -10 -16 -49 1 -112 19 -74
33 -95 61 -95 29 0 34 7 43 62 6 34 15 48 49 73 99 71 51 111 -102 86z"/>
<path d="M7130 3722 c-19 -15 -21 -22 -11 -40 25 -46 131 -36 131 12 0 45 -77
63 -120 28z"/>
<path d="M2617 3678 c-50 -23 -69 -37 -73 -55 -9 -33 6 -44 63 -50 41 -4 54
-11 84 -45 31 -34 41 -40 63 -34 22 5 26 12 26 41 0 42 -25 143 -41 161 -17
20 -46 16 -122 -18z"/>
<path d="M2863 3692 c-36 -11 -63 -40 -63 -67 0 -23 4 -25 40 -25 66 0 117 65
71 90 -11 5 -21 10 -23 9 -2 -1 -13 -4 -25 -7z"/>
<path d="M5129 3693 c-17 -4 -39 -43 -39 -68 0 -8 -4 -15 -10 -15 -5 0 -10 6
-10 14 0 22 -40 66 -60 66 -24 0 -40 -21 -47 -64 -7 -46 39 -145 92 -196 l37
-35 29 34 c44 54 71 118 71 177 0 28 -2 57 -6 63 -10 16 -39 28 -57 24z"/>
<path d="M3865 3675 c-72 -17 -95 -32 -95 -60 0 -21 8 -27 56 -41 48 -14 59
-22 82 -60 18 -30 34 -44 48 -44 39 0 46 22 39 115 -10 111 -19 118 -130 90z"/>
<path d="M4080 3643 c-51 -19 -65 -66 -26 -84 19 -9 32 -8 63 7 43 21 54 51
27 71 -18 13 -38 15 -64 6z"/>
<path d="M942 3623 c-24 -10 -33 -40 -16 -57 23 -24 96 -21 119 4 17 19 17 21
0 40 -17 19 -71 26 -103 13z"/>
<path d="M1757 3473 c-16 -15 -5 -64 19 -93 20 -23 34 -30 53 -28 62 7 22 128
-42 128 -13 0 -27 -3 -30 -7z"/>
<path d="M1918 3459 c-35 -20 -30 -101 9 -126 18 -12 23 -12 37 2 9 9 16 32
16 51 0 59 -28 92 -62 73z"/>
<path d="M1657 3383 c-12 -11 -8 -48 8 -70 8 -12 31 -27 51 -33 45 -15 70 3
60 44 -10 42 -95 84 -119 59z"/>
<path d="M1831 3282 c-17 -32 -14 -153 5 -180 25 -36 51 -28 78 26 21 41 33
52 75 70 42 17 51 25 51 46 0 34 -21 43 -117 51 -75 7 -82 6 -92 -13z"/>
<path d="M6531 3244 c-35 -25 -51 -75 -50 -156 1 -101 9 -124 39 -119 41 5
117 49 154 87 35 36 54 89 42 119 -8 22 -59 18 -91 -7 l-28 -22 7 37 c12 67
-23 96 -73 61z"/>
<path d="M1662 3228 c-26 -26 1 -63 55 -74 62 -12 98 38 51 70 -27 19 -89 21
-106 4z"/>
<path d="M288 3035 c-8 -19 -8 -31 1 -51 16 -35 9 -39 -29 -19 -17 9 -41 15
-53 13 -30 -4 -34 -53 -8 -95 24 -39 134 -93 194 -96 l42 -2 -1 77 c-1 58 -7
87 -23 120 -40 77 -100 103 -123 53z"/>
<path d="M3297 3043 c-12 -11 -7 -63 8 -93 15 -30 54 -48 74 -35 19 11 12 80
-10 109 -19 24 -57 35 -72 19z"/>
<path d="M3442 2998 c-28 -28 -6 -128 27 -128 20 0 41 40 41 76 0 42 -14 64
-40 64 -9 0 -21 -5 -28 -12z"/>
<path d="M3187 2963 c-17 -16 -5 -61 22 -87 66 -63 127 0 62 64 -27 28 -69 39
-84 23z"/>
<path d="M3346 2838 c-18 -31 -30 -152 -16 -178 18 -34 56 -25 81 19 22 39 54
61 88 61 10 0 29 8 42 19 22 17 22 20 7 43 -12 19 -34 29 -85 41 -88 22 -100
21 -117 -5z"/>
<path d="M4604 2826 c-52 -23 -104 -132 -104 -220 l0 -39 65 5 c41 4 85 15
118 32 119 58 109 163 -11 122 -23 -8 -23 -7 -8 23 19 36 20 63 4 79 -15 15
-25 15 -64 -2z"/>
<path d="M3172 2808 c-19 -19 -14 -35 15 -58 33 -26 90 -24 107 3 25 41 -86
91 -122 55z"/>
<path d="M5730 2745 c-16 -20 -7 -81 17 -107 10 -11 27 -18 42 -16 24 3 26 7
25 52 0 38 -5 53 -23 67 -28 23 -45 24 -61 4z"/>
<path d="M5871 2696 c-19 -22 -10 -107 12 -120 26 -16 57 24 57 73 0 55 -40
82 -69 47z"/>
<path d="M5610 2648 c0 -41 43 -88 81 -88 35 0 45 29 24 69 -18 35 -43 51 -79
51 -23 0 -26 -4 -26 -32z"/>
<path d="M1095 2637 c-36 -36 -68 -123 -69 -192 l-1 -40 59 3 c103 4 206 67
206 126 0 45 -38 58 -91 30 l-30 -15 16 31 c9 17 15 43 13 58 -2 22 -9 28 -36
30 -26 3 -39 -3 -67 -31z"/>
<path d="M2377 2633 c-13 -12 -7 -89 9 -111 18 -25 46 -29 64 -7 15 18 8 88
-10 110 -13 15 -51 20 -63 8z"/>
<path d="M2245 2571 c-15 -48 32 -116 77 -109 35 5 38 65 4 101 -30 32 -72 36
-81 8z"/>
<path d="M2508 2553 c-37 -43 -27 -113 16 -113 32 0 63 61 50 99 -11 32 -44
38 -66 14z"/>
<path d="M5784 2560 c-24 -10 -30 -28 -40 -124 -6 -59 -5 -71 10 -81 16 -13
56 -9 56 4 0 4 12 22 28 40 20 25 39 35 76 42 45 8 65 21 66 42 0 18 -43 46
-94 61 -30 9 -61 18 -68 21 -7 2 -23 0 -34 -5z"/>
<path d="M5603 2530 c-28 -12 -29 -34 -3 -60 36 -36 94 -40 114 -8 9 14 6 23
-14 42 -29 29 -66 39 -97 26z"/>
<path d="M7162 2478 c-6 -7 -14 -28 -19 -47 l-9 -35 -22 37 c-24 42 -64 51
-82 18 -30 -56 6 -138 95 -220 l48 -44 22 27 c51 64 73 206 39 254 -17 24 -56
29 -72 10z"/>
<path d="M2201 2436 c-30 -36 48 -107 100 -91 29 10 24 49 -12 79 -34 29 -70
34 -88 12z"/>
<path d="M2396 2441 c-22 -8 -66 -119 -66 -167 0 -29 14 -44 41 -44 5 0 26 16
46 35 33 31 44 35 89 35 124 0 83 82 -69 139 -12 5 -30 5 -41 2z"/>
<path d="M3926 2228 c-29 -40 -13 -129 22 -128 25 1 52 46 52 85 0 61 -44 86
-74 43z"/>
<path d="M4040 2178 c-38 -63 -17 -123 36 -99 30 13 58 74 50 107 -5 19 -13
24 -36 24 -23 0 -35 -7 -50 -32z"/>
<path d="M3807 2163 c-4 -3 -7 -23 -7 -44 0 -50 40 -99 67 -83 27 17 29 74 3
107 -20 26 -49 35 -63 20z"/>
<path d="M373 2082 c-22 -14 -25 -59 -8 -96 19 -40 48 -54 72 -35 23 19 12 98
-17 121 -25 20 -30 21 -47 10z"/>
<path d="M4093 2048 c-30 -33 -34 -72 -8 -82 41 -15 116 50 101 90 -9 23 -69
17 -93 -8z"/>
<path d="M3883 2007 c-100 -67 -96 -107 12 -107 50 0 65 -4 81 -21 40 -45 94
-41 94 7 0 13 -16 56 -35 94 -31 61 -39 70 -63 70 -15 0 -54 -19 -89 -43z"/>
<path d="M495 2000 c-26 -50 -13 -110 24 -110 25 0 41 21 48 63 11 70 -42 105
-72 47z"/>
<path d="M235 2000 c-14 -44 58 -125 93 -104 28 18 26 58 -3 93 -32 37 -80 43
-90 11z"/>
<path d="M1595 1904 c-26 -28 -35 -97 -14 -109 20 -13 59 5 74 35 40 76 -6
132 -60 74z"/>
<path d="M392 1882 c-7 -5 -22 -42 -33 -83 -15 -58 -18 -81 -10 -102 14 -37
43 -34 78 7 30 37 68 56 112 56 54 0 66 54 18 78 -97 48 -140 59 -165 44z"/>
<path d="M1462 1877 c-6 -7 -12 -27 -13 -43 -5 -64 28 -99 62 -68 22 20 26 93
7 112 -16 16 -43 15 -56 -1z"/>
<path d="M213 1874 c-22 -10 -14 -52 14 -74 36 -28 97 -25 101 5 5 39 -74 87
-115 69z"/>
<path d="M5165 1835 c-29 -28 -35 -95 -10 -115 36 -30 94 41 80 99 -12 46 -35
52 -70 16z"/>
<path d="M1708 1834 c-15 -8 -32 -23 -38 -34 -15 -28 -12 -67 6 -74 21 -8 80
18 93 42 16 30 13 69 -5 76 -21 8 -25 7 -56 -10z"/>
<path d="M6400 1790 c-17 -17 -20 -31 -18 -68 3 -43 5 -47 30 -50 37 -4 60 33
56 90 -2 35 -7 44 -25 46 -12 2 -31 -6 -43 -18z"/>
<path d="M5030 1781 c-24 -46 0 -121 40 -121 38 0 51 59 25 110 -18 35 -49 39
-65 11z"/>
<path d="M3009 1764 c-21 -22 -24 -37 -27 -107 -4 -106 13 -163 48 -159 38 4
127 68 156 111 31 47 35 98 9 117 -25 19 -29 18 -63 -11 -37 -31 -44 -31 -37
-2 4 12 1 35 -4 50 -14 35 -49 36 -82 1z"/>
<path d="M5269 1760 c-37 -36 -39 -93 -3 -98 25 -4 72 33 85 66 24 63 -30 84
-82 32z"/>
<path d="M6266 1735 c-13 -34 -6 -85 15 -106 25 -25 40 -21 57 15 20 40 -3
100 -40 104 -16 2 -28 -3 -32 -13z"/>
<path d="M6509 1721 c-24 -24 -30 -38 -27 -63 2 -28 8 -34 30 -36 42 -5 80 38
76 86 -4 50 -36 56 -79 13z"/>
<path d="M1482 1720 c-75 -21 -87 -30 -78 -63 4 -19 15 -27 38 -32 61 -12 68
-16 98 -61 37 -53 75 -61 86 -18 9 35 -4 164 -17 181 -15 17 -50 15 -127 -7z"/>
<path d="M1710 1693 c-48 -18 -65 -64 -30 -83 40 -21 110 14 110 55 0 31 -37
44 -80 28z"/>
<path d="M5082 1631 c-67 -28 -87 -49 -77 -80 4 -14 18 -20 57 -23 44 -5 56
-11 90 -47 41 -43 56 -49 76 -29 16 16 15 61 -2 126 -25 92 -39 97 -144 53z"/>
<path d="M5286 1619 c-33 -26 -35 -64 -4 -73 26 -6 87 21 101 45 29 47 -46 68
-97 28z"/>
<path d="M6325 1588 c-58 -23 -85 -44 -85 -68 0 -27 22 -40 68 -40 39 0 49 -5
82 -41 27 -30 43 -40 61 -37 32 4 36 50 12 138 -18 64 -19 65 -53 67 -19 1
-57 -8 -85 -19z"/>
<path d="M6545 1590 c-30 -12 -47 -36 -43 -62 7 -48 111 -25 124 28 10 39 -29
56 -81 34z"/>
<path d="M4110 1350 c-22 -22 -27 -79 -10 -111 6 -11 21 -19 35 -19 28 0 45
26 45 70 0 63 -36 94 -70 60z"/>
<path d="M4244 1332 c-30 -20 -44 -90 -24 -122 7 -11 15 -12 37 -5 54 19 71
135 20 135 -12 0 -27 -4 -33 -8z"/>
<path d="M4001 1261 c-33 -21 -4 -113 39 -124 20 -5 50 15 50 34 0 24 -30 78
-48 88 -25 13 -23 13 -41 2z"/>
<path d="M2341 1236 c-15 -17 -17 -42 -8 -78 l7 -27 -34 20 c-50 29 -80 23
-84 -19 -5 -50 37 -98 114 -133 35 -16 78 -30 96 -31 l33 -3 3 75 c4 89 -15
148 -59 185 -35 28 -51 31 -68 11z"/>
<path d="M4295 1185 c-16 -15 -25 -36 -25 -55 0 -27 3 -30 30 -30 41 0 80 39
80 80 0 27 -3 30 -30 30 -19 0 -40 -9 -55 -25z"/>
<path d="M202 1158 c-31 -35 -42 -72 -42 -151 0 -124 12 -136 96 -98 85 38
150 118 142 173 -5 34 -61 38 -95 6 l-26 -23 7 37 c13 71 -36 104 -82 56z"/>
<path d="M4108 1134 c-60 -49 -78 -72 -78 -100 0 -32 20 -39 76 -25 42 11 49
10 89 -14 52 -30 71 -31 85 -6 12 23 3 51 -37 113 -51 80 -70 85 -135 32z"/>
<path d="M1201 1004 c-20 -45 13 -124 53 -124 15 0 36 36 36 61 0 76 -63 120
-89 63z"/>
<path d="M1077 973 c-24 -24 12 -110 50 -119 51 -13 69 26 38 85 -18 36 -68
55 -88 34z"/>
<path d="M1343 945 c-43 -30 -38 -125 7 -125 40 0 69 97 38 128 -15 15 -19 15
-45 -3z"/>
<path d="M7111 833 c-43 -43 -71 -118 -71 -191 l0 -45 63 7 c120 12 226 91
197 145 -12 24 -68 29 -88 9 -21 -21 -23 -2 -5 36 21 44 10 69 -31 74 -20 3
-36 -6 -65 -35z"/>
<path d="M1024 826 c-11 -27 13 -65 51 -83 39 -18 67 -11 73 19 9 45 -108 105
-124 64z"/>
<path d="M1197 803 c-75 -149 -49 -233 45 -148 34 31 44 35 89 34 56 -2 72 8
67 42 -2 16 -22 34 -68 61 -80 46 -114 48 -133 11z"/>
<path d="M5342 778 c-22 -22 -14 -86 13 -113 30 -31 51 -32 66 -4 15 29 -4 93
-34 114 -26 18 -30 18 -45 3z"/>
<path d="M5481 721 c-26 -26 -28 -92 -5 -116 38 -37 89 47 62 102 -17 35 -32
39 -57 14z"/>
<path d="M5222 708 c-20 -20 -14 -54 14 -88 21 -25 33 -30 58 -28 25 2 32 8
34 30 6 48 -77 115 -106 86z"/>
<path d="M6214 619 c-29 -32 -25 -137 8 -210 14 -31 31 -60 37 -63 16 -10 76
29 109 72 37 49 52 85 52 127 0 51 -9 65 -42 65 -22 0 -33 -7 -46 -30 -20 -34
-32 -39 -32 -10 0 62 -49 90 -86 49z"/>
<path d="M3270 615 c-7 -8 -16 -30 -19 -47 l-7 -32 -22 36 c-37 60 -75 60 -91
2 -17 -61 16 -131 95 -204 43 -39 47 -41 64 -25 26 23 60 107 67 163 7 64 -16
122 -50 122 -14 0 -30 -7 -37 -15z"/>
<path d="M5371 576 c-7 -9 -19 -48 -27 -86 -23 -124 11 -155 83 -75 33 37 47
45 75 45 45 0 71 19 66 51 -2 19 -15 29 -62 47 -82 33 -119 38 -135 18z"/>
<path d="M5190 555 c-27 -32 25 -85 83 -85 57 0 55 55 -3 85 -37 19 -64 19
-80 0z"/>
<path d="M4287 493 c-27 -31 -30 -84 -9 -139 26 -70 80 -146 100 -142 26 5 91
99 108 157 34 114 -38 184 -86 83 -17 -35 -30 -41 -30 -13 0 23 -37 71 -54 71
-7 0 -20 -8 -29 -17z"/>
<path d="M1914 439 c-32 -35 -26 -129 13 -211 18 -38 37 -68 44 -68 23 0 91
64 119 114 38 64 42 139 9 156 -25 14 -64 -8 -74 -40 -8 -26 -25 -26 -25 0 0
62 -49 90 -86 49z"/>
<path d="M450 413 c-31 -11 -60 -48 -79 -97 -25 -68 -37 -161 -21 -171 33 -21
219 44 212 74 -1 7 2 10 7 6 16 -10 44 42 37 69 -8 33 -39 41 -78 22 -36 -19
-44 -15 -29 12 31 57 3 104 -49 85z"/>
</g>
</svg>
