<svg id="Layer_1" data-name="Layer 1" xmlns="http://www.w3.org/2000/svg" viewBox="0 0 300 300"><defs><style>.cls-1{fill:none;stroke:#4d4d4d;stroke-linecap:round;stroke-linejoin:round}.cls-2{fill:#4d4d4d}</style></defs><path class="cls-1" d="m163.5 156.5 62.16-55.31 63.84 85.31"/><path class="cls-2" d="M150 1a149 149 0 0 1 105.36 254.36A149 149 0 0 1 44.64 44.64 148 148 0 0 1 150 1m0-1a150 150 0 1 0 150 150A150 150 0 0 0 150 0Z"/><path class="cls-1" d="M28.5 225.5 150 118.95l22.5 28.55"/><path d="M56.5 72.5v107h192v-107Zm185 101h-178v-94h178Z" style="fill:#c6bfa3;stroke-linejoin:round;stroke-linecap:round;stroke:#4d4d4d"/><path d="M84.36 79.5s-4.42 19-20.86 19" style="stroke-miterlimit:10;stroke-linecap:round;stroke:#4d4d4d;fill:none"/><text transform="translate(72.38 66.55)" style="font-size:41.82px;fill:#fff;font-family:BerlinSansFB-Reg,Berlin Sans FB;letter-spacing:.06em;stroke-miterlimit:10;stroke:#4d4d4d">ZEPHYR</text><path class="cls-2" d="M150.5 5.55a144 144 0 0 1 101.82 245.82A144 144 0 0 1 48.67 47.72 143.05 143.05 0 0 1 150.5 5.55m0-1a145 145 0 1 0 145 145 145 145 0 0 0-145-145Z"/></svg>