{
  "accessors": [
    {
      "bufferView": 2,
      "componentType": 5126,
      "count": 15023,
      "max": [
        17.645662307739258,
        10.627878189086914,
        9.4828815460205078
      ],
      "min": [
        -18.334451675415039,
        -10.673501014709473,
        -9.9444208145141602
      ],
      "type": "VEC3"
    },
    {
      "bufferView": 2,
      "byteOffset": 180276,
      "componentType": 5126,
      "count": 15023,
      "max": [
        0.99997347593307495,
        0.99975848197937012,
        0.99961429834365845
      ],
      "min": [
        -0.99936908483505249,
        -0.99999964237213135,
        -0.99997347593307495
      ],
      "type": "VEC3"
    },
    {
      "bufferView": 3,
      "componentType": 5126,
      "count": 15023,
      "max": [
        0.99997663497924805,
        0.9999961256980896,
        0.99996811151504517,
        1
      ],
      "min": [
        -0.99999576807022095,
        -0.99987006187438965,
        -0.99983841180801392,
        -1
      ],
      "type": "VEC4"
    },
    {
      "bufferView": 3,
      "byteOffset": 240368,
      "componentType": 5126,
      "count": 15023,
      "max": [
        0,
        0,
        0,
        0
      ],
      "min": [
        0,
        0,
        0,
        0
      ],
      "type": "VEC4"
    },
    {
      "bufferView": 1,
      "componentType": 5126,
      "count": 15023,
      "max": [
        0.99922508001327515,
        0.99782973527908325
      ],
      "min": [
        0.0023350738920271397,
        0.00076941435690969229
      ],
      "type": "VEC2"
    },
    {
      "bufferView": 0,
      "componentType": 5125,
      "count": 78954,
      "max": [
        15022
      ],
      "min": [
        0
      ],
      "type": "SCALAR"
    }
  ],
  "asset": {
    "extras": {
      "author": "3dhdscan (https://sketchfab.com/3dhdscan)",
      "license": "CC-BY-4.0 (http://creativecommons.org/licenses/by/4.0/)",
      "source": "https://sketchfab.com/models/15150c484ab7481caba9861f1553b6e5",
      "title": "Statue for swimming pool"
    },
    "generator": "Sketchfab-3.19.4",
    "version": "2.0"
  },
  "bufferViews": [
    {
      "buffer": 0,
      "byteLength": 315816,
      "byteOffset": 0,
      "name": "floatBufferViews",
      "target": 34963
    },
    {
      "buffer": 0,
      "byteLength": 120184,
      "byteOffset": 315816,
      "byteStride": 8,
      "name": "floatBufferViews",
      "target": 34962
    },
    {
      "buffer": 0,
      "byteLength": 360552,
      "byteOffset": 436000,
      "byteStride": 12,
      "name": "floatBufferViews",
      "target": 34962
    },
    {
      "buffer": 0,
      "byteLength": 480736,
      "byteOffset": 796552,
      "byteStride": 16,
      "name": "floatBufferViews",
      "target": 34962
    }
  ],
  "buffers": [
    {
      "byteLength": 1277288,
      "uri": "scene.bin"
    }
  ],
  "images": [
    {
      "uri": "textures/socha_eko_metallicRoughness.png"
    },
    {
      "uri": "textures/socha_eko_normal.jpeg"
    },
    {
      "uri": "textures/socha_eko_baseColor.jpeg"
    }
  ],
  "materials": [
    {
      "doubleSided": true,
      "emissiveFactor": [
        0,
        0,
        0
      ],
      "name": "socha_eko",
      "normalTexture": {
        "index": 1,
        "scale": 1,
        "texCoord": 0
      },
      "occlusionTexture": {
        "index": 0,
        "strength": 1,
        "texCoord": 0
      },
      "pbrMetallicRoughness": {
        "baseColorFactor": [
          1,
          1,
          1,
          1
        ],
        "baseColorTexture": {
          "index": 2,
          "texCoord": 0
        },
        "metallicFactor": 0,
        "roughnessFactor": 0.37976371949999999
      }
    }
  ],
  "meshes": [
    {
      "name": "socha_eko_socha_eko_0",
      "primitives": [
        {
          "attributes": {
            "COLOR_0": 3,
            "NORMAL": 1,
            "POSITION": 0,
            "TANGENT": 2,
            "TEXCOORD_0": 4
          },
          "indices": 5,
          "material": 0,
          "mode": 4
        }
      ]
    }
  ],
  "nodes": [
    {
      "children": [
        1
      ],
      "name": "RootNode (gltf orientation matrix)",
      "rotation": [
        -0.70710678118654746,
        -0,
        -0,
        0.70710678118654757
      ]
    },
    {
      "children": [
        2
      ],
      "name": "RootNode (model correction matrix)"
    },
    {
      "children": [
        3
      ],
      "matrix": [
        1,
        0,
        0,
        0,
        0,
        0,
        1,
        0,
        0,
        -1,
        0,
        0,
        0,
        0,
        0,
        1
      ],
      "name": "socha_eko.FBX"
    },
    {
      "children": [
        4
      ],
      "name": "RootNode"
    },
    {
      "children": [
        5
      ],
      "matrix": [
        0.98893390564837858,
        -0.0034906574919324009,
        -0.1483156956269899,
        0,
        -0.00089044572099170787,
        -0.99984481027649008,
        0.017594387445655304,
        0,
        -0.14835409453554646,
        -0.017267619217595735,
        -0.98878354151001835,
        0,
        0.099397659301757812,
        2.22882080078125,
        -0.40091800689697266,
        1
      ],
      "name": "socha_eko"
    },
    {
      "mesh": 0,
      "name": "socha_eko_socha_eko_0"
    }
  ],
  "samplers": [
    {
      "magFilter": 9729,
      "minFilter": 9987,
      "wrapS": 10497,
      "wrapT": 10497
    }
  ],
  "scene": 0,
  "scenes": [
    {
      "name": "OSG_Scene",
      "nodes": [
        0
      ]
    }
  ],
  "textures": [
    {
      "sampler": 0,
      "source": 0
    },
    {
      "sampler": 0,
      "source": 1
    },
    {
      "sampler": 0,
      "source": 2
    }
  ]
}

